{
    "asset" : {
        "generator" : "Khronos glTF Blender I/O v3.2.43",
        "version" : "2.0"
    },
    "scene" : 0,
    "scenes" : [
        {
            "name" : "Scene",
            "nodes" : [
                0
            ]
        }
    ],
    "nodes" : [
        {
            "mesh" : 0,
            "name" : "Cylinder",
            "translation" : [
                0.9164850115776062,
                5.605349063873291,
                1.2741315364837646
            ]
        }
    ],
    "materials" : [
        {
            "doubleSided" : true,
            "name" : "Material.001",
            "pbrMetallicRoughness" : {
                "baseColorFactor" : [
                    0.800000011920929,
                    0.800000011920929,
                    0.800000011920929,
                    1
                ],
                "metallicFactor" : 0,
                "roughnessFactor" : 0.5
            }
        }
    ],
    "meshes" : [
        {
            "name" : "Cylinder.001",
            "primitives" : [
                {
                    "attributes" : {
                        "POSITION" : 0,
                        "NORMAL" : 1,
                        "TEXCOORD_0" : 2
                    },
                    "indices" : 3,
                    "material" : 0
                }
            ]
        }
    ],
    "accessors" : [
        {
            "bufferView" : 0,
            "componentType" : 5126,
            "count" : 453,
            "max" : [
                1.1395677328109741,
                1,
                1.1395677328109741
            ],
            "min" : [
                -1.1395677328109741,
                -1,
                -1.1395677328109741
            ],
            "type" : "VEC3"
        },
        {
            "bufferView" : 1,
            "componentType" : 5126,
            "count" : 453,
            "type" : "VEC3"
        },
        {
            "bufferView" : 2,
            "componentType" : 5126,
            "count" : 453,
            "type" : "VEC2"
        },
        {
            "bufferView" : 3,
            "componentType" : 5123,
            "count" : 1908,
            "type" : "SCALAR"
        }
    ],
    "bufferViews" : [
        {
            "buffer" : 0,
            "byteLength" : 5436,
            "byteOffset" : 0
        },
        {
            "buffer" : 0,
            "byteLength" : 5436,
            "byteOffset" : 5436
        },
        {
            "buffer" : 0,
            "byteLength" : 3624,
            "byteOffset" : 10872
        },
        {
            "buffer" : 0,
            "byteLength" : 3816,
            "byteOffset" : 14496
        }
    ],
    "buffers" : [
        {
            "byteLength" : 18312,
            "uri" : "data:application/octet-stream;base64,"
        }
    ]
}
