{
    "asset" : {
        "generator" : "Khronos glTF Blender I/O v3.2.43",
        "version" : "2.0"
    },
    "scene" : 0,
    "scenes" : [
        {
            "name" : "Scene",
            "nodes" : [
                0
            ]
        }
    ],
    "nodes" : [
        {
            "mesh" : 0,
            "name" : "bird",
            "rotation" : [
                0.7071068286895752,
                0.7071068286895752,
                0,
                0
            ],
            "scale" : [
                -1,
                -1,
                -1
            ],
            "translation" : [
                6.480738162994385,
                8.65386962890625,
                0.2592824101448059
            ]
        }
    ],
    "meshes" : [
        {
            "name" : "Plane",
            "primitives" : [
                {
                    "attributes" : {
                        "POSITION" : 0,
                        "NORMAL" : 1,
                        "TEXCOORD_0" : 2
                    },
                    "indices" : 3
                }
            ]
        }
    ],
    "accessors" : [
        {
            "bufferView" : 0,
            "componentType" : 5126,
            "count" : 692,
            "max" : [
                2.8582470417022705,
                0.8400525450706482,
                3.649214267730713
            ],
            "min" : [
                -1.4379550218582153,
                -0.8400525450706482,
                -2.1118321418762207
            ],
            "type" : "VEC3"
        },
        {
            "bufferView" : 1,
            "componentType" : 5126,
            "count" : 692,
            "type" : "VEC3"
        },
        {
            "bufferView" : 2,
            "componentType" : 5126,
            "count" : 692,
            "type" : "VEC2"
        },
        {
            "bufferView" : 3,
            "componentType" : 5123,
            "count" : 1113,
            "type" : "SCALAR"
        }
    ],
    "bufferViews" : [
        {
            "buffer" : 0,
            "byteLength" : 8304,
            "byteOffset" : 0
        },
        {
            "buffer" : 0,
            "byteLength" : 8304,
            "byteOffset" : 8304
        },
        {
            "buffer" : 0,
            "byteLength" : 5536,
            "byteOffset" : 16608
        },
        {
            "buffer" : 0,
            "byteLength" : 2226,
            "byteOffset" : 22144
        }
    ],
    "buffers" : [
        {
            "byteLength" : 24372,
            "uri" : "data:application/octet-stream;base64,"
        }
    ]
}
