{
    "asset" : {
        "generator" : "Khronos glTF Blender I/O v3.2.43",
        "version" : "2.0"
    },
    "extensionsUsed" : [
        "KHR_materials_transmission"
    ],
    "scene" : 0,
    "scenes" : [
        {
            "name" : "Scene",
            "nodes" : [
                0,
                1,
                2
            ]
        }
    ],
    "nodes" : [
        {
            "mesh" : 0,
            "name" : "Grid"
        },
        {
            "mesh" : 1,
            "name" : "Water",
            "scale" : [
                0.666945219039917,
                0.5669453144073486,
                0.6469452381134033
            ],
            "translation" : [
                0,
                0.014018107205629349,
                0
            ]
        },
        {
            "name" : "Empty"
        }
    ],
    "animations" : [
        {
            "channels" : [
                {
                    "sampler" : 0,
                    "target" : {
                        "node" : 1,
                        "path" : "translation"
                    }
                }
            ],
            "name" : "WaterAction",
            "samplers" : [
                {
                    "input" : 8,
                    "interpolation" : "LINEAR",
                    "output" : 9
                }
            ]
        }
    ],
    "materials" : [
        {
            "doubleSided" : true,
            "name" : "Material.005",
            "pbrMetallicRoughness" : {
                "baseColorTexture" : {
                    "index" : 0
                },
                "metallicFactor" : 0,
                "roughnessFactor" : 0.45209580659866333
            }
        },
        {
            "alphaMode" : "BLEND",
            "doubleSided" : true,
            "extensions" : {
                "KHR_materials_transmission" : {
                    "transmissionFactor" : 0.37463128566741943
                }
            },
            "name" : "Material.004",
            "pbrMetallicRoughness" : {
                "baseColorFactor" : [
                    0,
                    0.109532929956913,
                    0.8000000715255737,
                    1
                ],
                "metallicFactor" : 0,
                "roughnessFactor" : 0.8238937854766846
            }
        }
    ],
    "meshes" : [
        {
            "name" : "Grid.002",
            "primitives" : [
                {
                    "attributes" : {
                        "POSITION" : 0,
                        "NORMAL" : 1,
                        "TEXCOORD_0" : 2
                    },
                    "indices" : 3,
                    "material" : 0
                }
            ]
        },
        {
            "name" : "Plane.001",
            "primitives" : [
                {
                    "attributes" : {
                        "POSITION" : 4,
                        "NORMAL" : 5,
                        "TEXCOORD_0" : 6
                    },
                    "indices" : 7,
                    "material" : 1
                }
            ]
        }
    ],
    "textures" : [
        {
            "sampler" : 0,
            "source" : 0
        }
    ],
    "images" : [
        {
            "bufferView" : 4,
            "mimeType" : "image/png",
            "name" : "Material"
        }
    ],
    "accessors" : [
        {
            "bufferView" : 0,
            "componentType" : 5126,
            "count" : 40000,
            "max" : [
                0.999309778213501,
                0.4662516713142395,
                1.0082255601882935
            ],
            "min" : [
                -1.0017927885055542,
                -0.16258105635643005,
                -1.0200263261795044
            ],
            "type" : "VEC3"
        },
        {
            "bufferView" : 1,
            "componentType" : 5126,
            "count" : 40000,
            "type" : "VEC3"
        },
        {
            "bufferView" : 2,
            "componentType" : 5126,
            "count" : 40000,
            "type" : "VEC2"
        },
        {
            "bufferView" : 3,
            "componentType" : 5123,
            "count" : 60000,
            "type" : "SCALAR"
        },
        {
            "bufferView" : 5,
            "componentType" : 5126,
            "count" : 256,
            "max" : [
                0.916663646697998,
                -1.15873190225102e-05,
                0.9166701436042786
            ],
            "min" : [
                -1.0083250999450684,
                -0.2970256209373474,
                -0.9185279607772827
            ],
            "type" : "VEC3"
        },
        {
            "bufferView" : 6,
            "componentType" : 5126,
            "count" : 256,
            "type" : "VEC3"
        },
        {
            "bufferView" : 7,
            "componentType" : 5126,
            "count" : 256,
            "type" : "VEC2"
        },
        {
            "bufferView" : 8,
            "componentType" : 5123,
            "count" : 384,
            "type" : "SCALAR"
        },
        {
            "bufferView" : 9,
            "componentType" : 5126,
            "count" : 250,
            "max" : [
                10.416666666666666
            ],
            "min" : [
                0.041666666666666664
            ],
            "type" : "SCALAR"
        },
        {
            "bufferView" : 10,
            "componentType" : 5126,
            "count" : 250,
            "type" : "VEC3"
        }
    ],
    "bufferViews" : [
        {
            "buffer" : 0,
            "byteLength" : 480000,
            "byteOffset" : 0
        },
        {
            "buffer" : 0,
            "byteLength" : 480000,
            "byteOffset" : 480000
        },
        {
            "buffer" : 0,
            "byteLength" : 320000,
            "byteOffset" : 960000
        },
        {
            "buffer" : 0,
            "byteLength" : 120000,
            "byteOffset" : 1280000
        },
        {
            "buffer" : 0,
            "byteLength" : 333743,
            "byteOffset" : 1400000
        },
        {
            "buffer" : 0,
            "byteLength" : 3072,
            "byteOffset" : 1733744
        },
        {
            "buffer" : 0,
            "byteLength" : 3072,
            "byteOffset" : 1736816
        },
        {
            "buffer" : 0,
            "byteLength" : 2048,
            "byteOffset" : 1739888
        },
        {
            "buffer" : 0,
            "byteLength" : 768,
            "byteOffset" : 1741936
        },
        {
            "buffer" : 0,
            "byteLength" : 1000,
            "byteOffset" : 1742704
        },
        {
            "buffer" : 0,
            "byteLength" : 3000,
            "byteOffset" : 1743704
        }
    ],
    "samplers" : [
        {
            "magFilter" : 9729,
            "minFilter" : 9987
        }
    ],
    "buffers" : [
        {
            "byteLength" : 1746704,
            "uri" : "data:application/octet-stream;base64,"
        }
    ]
}
